<?xml version="1.0" encoding="utf-8"?>
<!-- Generator: Adobe Illustrator 18.0.0, SVG Export Plug-In . SVG Version: 6.00 Build 0)  -->
<!DOCTYPE svg PUBLIC "-//W3C//DTD SVG 1.1//EN" "http://www.w3.org/Graphics/SVG/1.1/DTD/svg11.dtd">
<svg version="1.1" id="Layer_1" xmlns="http://www.w3.org/2000/svg" xmlns:xlink="http://www.w3.org/1999/xlink" x="0px" y="0px"
	 viewBox="0 0 595.3 841.9" enable-background="new 0 0 595.3 841.9" xml:space="preserve">
<g>
	<circle fill="#FFFFFF" cx="226.3" cy="614.5" r="34.9"/>
	<path fill="#FFFFFF" d="M226.3,370.1c-19.2,0-34.9,15.7-34.9,34.9v104.7c0,19.2,15.7,34.9,34.9,34.9s34.9-15.7,34.9-34.9V405
		C261.2,385.8,245.5,370.1,226.3,370.1z"/>
</g>
<path fill="#FFC412" d="M298.5,141.6L0,700.3h595.3L298.5,141.6z M298.5,642.6c-19.2,0-34.9-15.7-34.9-34.9
	c0-19.2,15.7-34.9,34.9-34.9s34.9,15.7,34.9,34.9C333.4,626.9,317.7,642.6,298.5,642.6z M298.5,537.9c-19.2,0-34.9-15.7-34.9-34.9
	V398.3c0-19.2,15.7-34.9,34.9-34.9s34.9,15.7,34.9,34.9V503C333.4,522.2,317.7,537.9,298.5,537.9z"/>
</svg>
